<svg width="132" height="20" viewBox="0 0 132 20" fill="none" xmlns="http://www.w3.org/2000/svg">
<path d="M14.08 9.49444V9.68718C14.0665 10.2552 14.0056 10.8436 13.8974 11.4522C13.796 12.0609 13.6506 12.6695 13.4612 13.2782C13.2719 13.8868 13.0453 14.4887 12.7816 15.0838C12.5178 15.679 12.2202 16.247 11.8889 16.788C11.5643 17.3358 11.2126 17.8464 10.8339 18.3198C10.4552 18.7999 10.0562 19.2226 9.63688 19.5878L8.12542 18.7154C8.36211 18.3164 8.57514 17.8802 8.76449 17.4068C8.96061 16.9402 9.13644 16.4499 9.29199 15.9359C9.44753 15.422 9.5794 14.8945 9.68761 14.3535C9.80257 13.8124 9.89725 13.2748 9.97164 12.7405C10.046 12.2063 10.1001 11.6822 10.1339 11.1682C10.1745 10.6475 10.1948 10.1538 10.1948 9.68718C10.1948 9.32199 10.1914 8.90946 10.1847 8.4496C10.1847 7.98297 10.1576 7.50958 10.1035 7.02942C10.0562 6.54927 9.97502 6.08264 9.86005 5.62954C9.74509 5.16967 9.57264 4.76053 9.34271 4.40211C9.11954 4.04368 8.82874 3.75627 8.47031 3.53986C8.11865 3.32345 7.67908 3.21525 7.15158 3.21525C6.68495 3.21525 6.28257 3.2964 5.94444 3.45871C5.61306 3.61425 5.32903 3.82727 5.09233 4.09778C4.8624 4.36153 4.67643 4.66923 4.53441 5.02089C4.39915 5.37256 4.29095 5.74451 4.2098 6.13674C4.13541 6.52222 4.08469 6.91446 4.05764 7.31346C4.03735 7.7057 4.0272 8.07765 4.0272 8.42931V11.2595H8.39931V12.9333H4.0272V16.4837H0V9.05824C0 7.99649 0.169068 7.00914 0.507204 6.09617C0.845341 5.1832 1.32211 4.39196 1.93752 3.72245C2.55969 3.04618 3.30359 2.51869 4.16922 2.13997C5.04161 1.7545 6.01206 1.56176 7.08057 1.56176C7.80419 1.56176 8.48046 1.66658 9.10939 1.87623C9.74509 2.07911 10.3233 2.36314 10.844 2.72833C11.3648 3.08676 11.828 3.51619 12.2338 4.01663C12.6463 4.51031 12.9878 5.05133 13.2583 5.63968C13.5356 6.22804 13.7452 6.85021 13.8873 7.5062C14.0293 8.16218 14.0935 8.82493 14.08 9.49444Z" fill="#2A2A2A"/>
<path d="M29.9758 5.49767L28.2411 6.22804C28.1059 5.78846 27.9233 5.38608 27.6934 5.02089C27.4702 4.65571 27.1997 4.34462 26.8818 4.08764C26.5708 3.82389 26.2157 3.62101 25.8167 3.47899C25.4177 3.33021 24.9815 3.25582 24.5081 3.25582C24.0009 3.25582 23.5343 3.34036 23.1082 3.50943C22.6889 3.67849 22.3102 3.90843 21.9721 4.19922C21.6407 4.48326 21.3499 4.81801 21.0997 5.20349C20.8495 5.58896 20.6398 6.00149 20.4708 6.44107C20.3085 6.87388 20.1834 7.3236 20.0954 7.79023C20.0143 8.25686 19.9737 8.71334 19.9737 9.15968C19.9737 9.86977 20.0549 10.5765 20.2172 11.2798C20.3862 11.9831 20.65 12.6154 21.0084 13.1767C21.3736 13.738 21.8436 14.1945 22.4184 14.5462C22.9933 14.8911 23.6898 15.0635 24.5081 15.0635C24.9545 15.0635 25.3027 14.9655 25.553 14.7694C25.8032 14.5665 25.9283 14.2148 25.9283 13.7144V9.23069H29.9555V16.4837H28.7889L28.0788 15.3374C27.4296 15.8311 26.7128 16.1963 25.9283 16.433C25.1506 16.6629 24.356 16.7779 23.5444 16.7779C22.8276 16.7779 22.1378 16.69 21.475 16.5141C20.8191 16.3383 20.207 16.0881 19.639 15.7635C19.0709 15.4389 18.5535 15.0466 18.0869 14.5868C17.627 14.1269 17.2314 13.6163 16.9001 13.055C16.5754 12.4937 16.3218 11.8851 16.1392 11.2291C15.9634 10.5663 15.8755 9.87653 15.8755 9.15968C15.8755 8.44283 15.9634 7.75642 16.1392 7.10043C16.3218 6.43769 16.5754 5.82566 16.9001 5.26435C17.2314 4.69628 17.627 4.18232 18.0869 3.72245C18.5535 3.26259 19.0709 2.87035 19.639 2.54574C20.207 2.22113 20.8191 1.97091 21.475 1.79507C22.1378 1.61924 22.8276 1.53133 23.5444 1.53133C24.2342 1.53133 24.9071 1.61248 25.5631 1.77479C26.2259 1.93709 26.8413 2.18393 27.4093 2.5153C27.9774 2.83992 28.4812 3.25244 28.9208 3.75288C29.3671 4.24656 29.7188 4.82816 29.9758 5.49767Z" fill="#2A2A2A"/>
<path d="M39.4098 10.1031H32.593V8.23657H39.4098V10.1031Z" fill="#2A2A2A"/>
<path d="M52.8203 16.4837H42.3313V1.87623H52.8203V3.74274H46.3585V8.25686H51.3494V10.1132H46.3585V14.6172H52.8203V16.4837Z" fill="#2A2A2A"/>
<path d="M64.3744 16.4837H54.4535V15.1244L60.5906 6.1266H54.4535V4.76729H64.3744V6.1266L58.2372 15.1244H64.3744V16.4837Z" fill="#2A2A2A"/>
<path d="M69.0305 10.9248C69.4498 11.0194 69.8691 11.0938 70.2884 11.1479C70.7077 11.202 71.1304 11.2291 71.5564 11.2291C72.0027 11.2291 72.4153 11.1885 72.794 11.1073C73.1795 11.0194 73.5108 10.8774 73.7881 10.6813C74.0721 10.4784 74.2953 10.2113 74.4576 9.87991C74.6199 9.54854 74.7011 9.13601 74.7011 8.64233C74.7011 8.24333 74.647 7.87815 74.5388 7.54677C74.4306 7.2154 74.2683 6.93137 74.0519 6.69467C73.8422 6.45797 73.5818 6.27538 73.2708 6.14689C72.9597 6.01163 72.5979 5.94401 72.1853 5.94401C71.7999 5.94401 71.4516 6.01502 71.1405 6.15703C70.8362 6.29905 70.5657 6.49179 70.329 6.73525C70.099 6.97194 69.8995 7.24921 69.7305 7.56706C69.5682 7.88491 69.4329 8.21628 69.3247 8.56118C69.2165 8.90608 69.1387 9.25436 69.0914 9.60602C69.0441 9.95769 69.0204 10.2891 69.0204 10.6001C69.0204 10.6542 69.0204 10.7083 69.0204 10.7624C69.0204 10.8166 69.0238 10.8707 69.0305 10.9248ZM77.4806 8.6119C77.4806 9.09206 77.4028 9.52149 77.2472 9.9002C77.0917 10.2722 76.8787 10.6001 76.6082 10.8842C76.3444 11.1682 76.0367 11.4083 75.6851 11.6044C75.3334 11.8005 74.9581 11.9628 74.5591 12.0913C74.1601 12.2131 73.7475 12.301 73.3215 12.3551C72.9022 12.4092 72.493 12.4362 72.094 12.4362C71.5868 12.4362 71.0864 12.4024 70.5927 12.3348C70.099 12.2604 69.6121 12.1454 69.132 11.9899C69.2064 12.4362 69.3247 12.8623 69.487 13.268C69.6493 13.667 69.8657 14.0187 70.1362 14.323C70.4067 14.6206 70.7381 14.8573 71.1304 15.0331C71.5294 15.2089 71.9994 15.2969 72.5404 15.2969C72.8988 15.2969 73.2403 15.2428 73.5649 15.1346C73.8895 15.0263 74.1871 14.8742 74.4576 14.6781C74.7281 14.4819 74.9648 14.2486 75.1677 13.9781C75.3773 13.7076 75.5464 13.4067 75.6749 13.0753L77.1559 13.6231C76.9328 14.1573 76.6251 14.6206 76.2328 15.0128C75.8474 15.3983 75.4078 15.7195 74.9141 15.9765C74.4272 16.2267 73.9065 16.4127 73.3519 16.5344C72.8041 16.6562 72.2597 16.717 71.7187 16.717C70.826 16.717 70.001 16.5682 69.2436 16.2707C68.4861 15.9664 67.8335 15.5437 67.2857 15.0027C66.738 14.4617 66.3085 13.8158 65.9974 13.0652C65.6864 12.3145 65.5308 11.4928 65.5308 10.6001C65.5308 9.70746 65.6864 8.88579 65.9974 8.13513C66.3085 7.38447 66.738 6.73863 67.2857 6.19761C67.8335 5.65659 68.4861 5.2373 69.2436 4.93974C70.001 4.63542 70.826 4.48326 71.7187 4.48326C72.1515 4.48326 72.5945 4.51369 73.0476 4.57455C73.5007 4.63542 73.9403 4.73348 74.3663 4.86873C74.7924 4.99723 75.1948 5.16629 75.5735 5.37594C75.9522 5.58558 76.2802 5.84595 76.5574 6.15703C76.8415 6.46136 77.0646 6.8164 77.227 7.22216C77.396 7.62793 77.4806 8.09117 77.4806 8.6119Z" fill="#2A2A2A"/>
<path d="M91.6011 9.76833C91.6011 10.5596 91.5031 11.3846 91.3069 12.2435C91.1176 13.1024 90.8505 13.9443 90.5056 14.7694C90.1607 15.5944 89.7481 16.3687 89.268 17.0924C88.7878 17.8227 88.2603 18.4517 87.6855 18.9792L86.3972 18.2792C86.5798 17.9411 86.7523 17.5624 86.9146 17.1431C87.0769 16.7238 87.2223 16.2808 87.3508 15.8142C87.486 15.3408 87.6044 14.8539 87.7058 14.3535C87.814 13.853 87.9019 13.3593 87.9695 12.8724C88.0439 12.3787 88.098 11.902 88.1318 11.4421C88.1724 10.9755 88.1927 10.5427 88.1927 10.1437C88.1927 9.87991 88.1826 9.59926 88.1623 9.3017C88.142 8.99738 88.098 8.69644 88.0304 8.39888C87.9695 8.09455 87.885 7.80376 87.7768 7.52648C87.6686 7.24921 87.5232 7.00576 87.3406 6.79611C87.1648 6.58647 86.9484 6.4174 86.6914 6.28891C86.4412 6.16041 86.1436 6.09617 85.7987 6.09617C85.4606 6.09617 85.1596 6.17394 84.8959 6.32948C84.6321 6.47826 84.3988 6.67776 84.1959 6.92798C83.9931 7.17144 83.8172 7.45209 83.6684 7.76994C83.5264 8.08779 83.4081 8.41578 83.3134 8.75392C83.2255 9.08529 83.1612 9.41329 83.1207 9.7379C83.0801 10.0625 83.0598 10.3533 83.0598 10.6103V16.4837H79.621V4.76729H80.9397L82.512 7.49605C82.7014 7.04295 82.9381 6.63042 83.2221 6.25847C83.5061 5.88652 83.8274 5.56868 84.1858 5.30493C84.5442 5.04118 84.9398 4.8383 85.3727 4.69628C85.8122 4.55427 86.2856 4.48326 86.7928 4.48326C87.6044 4.48326 88.3111 4.61513 88.9129 4.87888C89.5148 5.14262 90.0153 5.51119 90.4143 5.98458C90.8133 6.45121 91.1108 7.00914 91.3069 7.65836C91.5031 8.30082 91.6011 9.00414 91.6011 9.76833Z" fill="#2A2A2A"/>
<path d="M105.661 16.4837H102.232V15.0838C101.826 15.6384 101.336 16.0509 100.761 16.3214C100.193 16.5852 99.5676 16.717 98.8846 16.717C97.9919 16.717 97.1939 16.5581 96.4906 16.2403C95.7873 15.9224 95.1921 15.4896 94.7052 14.9418C94.2183 14.3873 93.8464 13.738 93.5894 12.9941C93.3324 12.2502 93.2039 11.4522 93.2039 10.6001C93.2039 9.74804 93.3324 8.95004 93.5894 8.20614C93.8464 7.46224 94.2183 6.8164 94.7052 6.26862C95.1921 5.71407 95.7873 5.27788 96.4906 4.96003C97.1939 4.64218 97.9919 4.48326 98.8846 4.48326C99.3377 4.48326 99.7671 4.55089 100.173 4.68614C100.585 4.82139 100.961 5.01413 101.299 5.26435C101.644 5.50781 101.945 5.80537 102.202 6.15703C102.465 6.50193 102.672 6.88741 102.82 7.31346L104.342 4.76729H105.661V16.4837ZM102.212 10.6001C102.212 10.2958 102.195 9.97459 102.161 9.63646C102.134 9.29832 102.083 8.96356 102.009 8.63219C101.935 8.30082 101.83 7.98635 101.694 7.68879C101.566 7.38447 101.397 7.11734 101.187 6.88741C100.984 6.65071 100.738 6.46474 100.447 6.32948C100.156 6.19423 99.8178 6.1266 99.4324 6.1266C99.0469 6.1266 98.7121 6.19761 98.4281 6.33963C98.1441 6.47488 97.9006 6.66086 97.6977 6.89755C97.4948 7.12748 97.3258 7.39461 97.1905 7.69893C97.062 8.00326 96.9606 8.32111 96.8862 8.65248C96.8118 8.98385 96.7577 9.31861 96.7239 9.65674C96.6968 9.98812 96.6833 10.3026 96.6833 10.6001C96.6833 10.8977 96.6968 11.2156 96.7239 11.5537C96.7577 11.8918 96.8118 12.2266 96.8862 12.558C96.9606 12.8893 97.062 13.2072 97.1905 13.5115C97.3258 13.8158 97.4948 14.0863 97.6977 14.323C97.9006 14.553 98.1441 14.7389 98.4281 14.8809C98.7121 15.0162 99.0469 15.0838 99.4324 15.0838C99.784 15.0838 100.095 15.0128 100.366 14.8708C100.643 14.722 100.883 14.5259 101.086 14.2824C101.295 14.039 101.471 13.7617 101.613 13.4506C101.755 13.1395 101.87 12.8183 101.958 12.4869C102.046 12.1556 102.11 11.8276 102.151 11.503C102.192 11.1716 102.212 10.8707 102.212 10.6001Z" fill="#2A2A2A"/>
<path d="M118.493 5.80199L116.566 8.99738C116.485 8.72687 116.38 8.42255 116.251 8.08441C116.123 7.74627 115.964 7.43181 115.774 7.14101C115.585 6.84345 115.359 6.59661 115.095 6.40049C114.831 6.19761 114.527 6.09617 114.182 6.09617C113.864 6.09617 113.587 6.17732 113.35 6.33963C113.12 6.50193 112.924 6.71496 112.762 6.9787C112.599 7.23569 112.464 7.52987 112.356 7.86124C112.254 8.18585 112.173 8.51722 112.112 8.85536C112.058 9.18673 112.021 9.50796 112.001 9.81905C111.981 10.1234 111.97 10.3871 111.97 10.6103V16.4837H108.532V4.76729H109.85L111.24 7.49605C111.429 7.05648 111.646 6.65409 111.889 6.28891C112.133 5.91696 112.413 5.59911 112.731 5.33536C113.049 5.06485 113.408 4.85521 113.807 4.70643C114.212 4.55765 114.669 4.48326 115.176 4.48326C115.44 4.48326 115.734 4.50693 116.059 4.55427C116.383 4.59484 116.701 4.66923 117.012 4.77744C117.323 4.87888 117.611 5.01413 117.874 5.1832C118.138 5.35227 118.344 5.55853 118.493 5.80199Z" fill="#2A2A2A"/>
<path d="M131.478 16.4837H130.159L128.637 13.9375C128.488 14.3636 128.282 14.7491 128.018 15.094C127.761 15.4389 127.46 15.7364 127.116 15.9867C126.777 16.2301 126.402 16.4195 125.99 16.5547C125.584 16.69 125.154 16.7576 124.701 16.7576C123.809 16.7576 123.011 16.5987 122.307 16.2808C121.604 15.963 121.009 15.5302 120.522 14.9824C120.035 14.4278 119.663 13.7786 119.406 13.0347C119.149 12.2908 119.021 11.4928 119.021 10.6407C119.021 9.78862 119.149 8.99062 119.406 8.24672C119.663 7.50282 120.035 6.85698 120.522 6.30919C121.009 5.76141 121.604 5.3286 122.307 5.01075C123.011 4.6929 123.809 4.53398 124.701 4.53398C125.384 4.53398 126.01 4.66585 126.578 4.9296C127.153 5.19334 127.643 5.60587 128.049 6.16718V0.456055H131.478V16.4837ZM128.029 10.6407C128.029 10.3702 128.008 10.0727 127.968 9.74804C127.927 9.42343 127.863 9.09544 127.775 8.76406C127.687 8.43269 127.572 8.11146 127.43 7.80038C127.288 7.48929 127.112 7.21202 126.903 6.96856C126.7 6.7251 126.46 6.53236 126.182 6.39035C125.912 6.24157 125.601 6.16718 125.249 6.16718C124.864 6.16718 124.529 6.23819 124.245 6.3802C123.961 6.51546 123.717 6.70143 123.514 6.93813C123.312 7.16806 123.142 7.43519 123.007 7.73951C122.879 8.04383 122.777 8.36168 122.703 8.69306C122.629 9.02443 122.574 9.35918 122.541 9.69732C122.514 10.0287 122.5 10.3432 122.5 10.6407C122.5 10.9383 122.514 11.2561 122.541 11.5943C122.574 11.9256 122.629 12.257 122.703 12.5884C122.777 12.9198 122.879 13.241 123.007 13.5521C123.142 13.8564 123.312 14.1269 123.514 14.3636C123.717 14.5935 123.961 14.7795 124.245 14.9215C124.529 15.0568 124.864 15.1244 125.249 15.1244C125.635 15.1244 125.973 15.0568 126.263 14.9215C126.554 14.7863 126.801 14.6037 127.004 14.3737C127.214 14.137 127.383 13.8699 127.511 13.5724C127.646 13.268 127.751 12.9502 127.826 12.6188C127.9 12.2807 127.951 11.9425 127.978 11.6044C128.012 11.2663 128.029 10.945 128.029 10.6407Z" fill="#2A2A2A"/>
</svg>
