<svg width="13" height="12" viewBox="0 0 13 12" fill="none" xmlns="http://www.w3.org/2000/svg">
<path d="M2.67042 8.43905L2.08893 4.96778C1.99434 4.40315 1.94705 4.12084 2.09268 3.93542C2.23831 3.75 2.50734 3.75 3.04539 3.75H9.9546C10.4927 3.75 10.7617 3.75 10.9073 3.93542C11.0529 4.12084 11.0056 4.40315 10.911 4.96778L10.3295 8.43905C10.1245 9.6632 10.022 10.2752 9.61595 10.6376C9.20995 11 8.6267 11 7.4602 11H5.5398C4.37332 11 3.79007 11 3.38404 10.6376C2.97801 10.2752 2.87548 9.6632 2.67042 8.43905Z" stroke="#0072C6"/>
<path d="M4 3.75V3.5C4 2.11929 5.11929 1 6.5 1C7.8807 1 9 2.11929 9 3.5V3.75" stroke="#0072C6"/>
<path d="M2.75 8.75H10.25" stroke="#0072C6"/>
</svg>
